# xmcd CD database file
#
# Track frame offsets:
#	150
#	16263
#	31300
#	40903
#	53883
#	69160
#	85948
#	101285
#	114263
#	131025
#	144263
#	156585
#	171055
#	186280
#	195908
#	204225
#	220393
#	237243
#
# Disc length: 3342 seconds
#
# Revision: 2
# Processed by: cddbd v1.5.1PL2 Copyright (c) Steve Scherf et al.
# Submitted via: jetAudio 5
#
DISCID=ed0d0c12
DTITLE=artist - title
DYEAR=1900
DGENRE=
TTITLE0=Pista 01
TTITLE1=Pista 02
TTITLE2=Pista 03
TTITLE3=Pista 04
TTITLE4=Pista 05
TTITLE5=Pista 06
TTITLE6=Pista 07
TTITLE7=Pista 08
TTITLE8=Pista 09
TTITLE9=Pista 10
TTITLE10=Pista 11
TTITLE11=Pista 12
TTITLE12=Pista 13
TTITLE13=Pista 14
TTITLE14=Pista 15
TTITLE15=Pista 16
TTITLE16=Pista 17
TTITLE17=Pista 18
EXTD=
EXTT0=
EXTT1=
EXTT2=
EXTT3=
EXTT4=
EXTT5=
EXTT6=
EXTT7=
EXTT8=
EXTT9=
EXTT10=
EXTT11=
EXTT12=
EXTT13=
EXTT14=
EXTT15=
EXTT16=
EXTT17=
PLAYORDER=
